<svg xmlns="http://www.w3.org/2000/svg" width="62.34009" height="17.45595" viewBox="0 0 62.34009 17.45595" creator="Katerina Limpitsouni"><path d="M.92088,10.91576c15.08225-4.76048,31.17362-5.75155,46.69279-2.61603,4.44585,.89825,8.8161,2.1243,13.095,3.6261,.91266,.32032,1.30511-1.12831,.39876-1.44642C45.98205,5.17074,29.72963,3.62772,13.90011,6.24589c-4.53218,.74961-8.99807,1.84099-13.37799,3.22345-.9173,.28953-.52549,1.73815,.39876,1.44642H.92088Z" fill="#01010C" origin="undraw"/><path d="M55.80175,1.13112l2.58581,4.86421,1.32984,2.5016,.66492,1.2508c.2139,.40238,.5737,.7741,.18083,1.12482-.28086,.25072-.76919,.40798-1.10332,.58521-.41375,.21945-.82749,.4389-1.24124,.65836-.82749,.4389-1.65498,.87781-2.48247,1.31671-1.65498,.87781-3.30996,1.75562-4.96494,2.63342-.85312,.4525-.09609,1.74773,.75708,1.29521,1.93081-1.02411,3.86162-2.04822,5.79243-3.07233,.91943-.48767,1.83887-.97534,2.7583-1.46301,.71819-.38093,1.84318-.72333,2.16548-1.54839,.29297-.74998-.14917-1.50121-.49306-2.14809l-1.55149-2.91853c-1.03432-1.94569-2.06865-3.89137-3.10297-5.83706-.45329-.8527-1.74856-.09574-1.29521,.75708h0Z" fill="#01010C"/></svg>