<svg xmlns="http://www.w3.org/2000/svg" width="58.39406" height="41.16259" viewBox="0 0 58.39406 41.16259" creator="Katerina Limpitsouni"><path d="M.75,1.5H57.64406l-.75-.75V40.41264c0,.96518,1.5,.96678,1.5,0v-.00005c0-.40544-.34362-.75-.75-.75H.75C.34456,39.66259,0,40.00621,0,40.41259v.00005c0,.96518,1.5,.96678,1.5,0V.89227C1.5-.07291,0-.07451,0,.89227V40.41264H1.5v-.00005l-.75,.75H57.64406l-.75-.75v.00005c0,.96518,1.5,.96678,1.5,0V.75c0-.40544-.34362-.75-.75-.75H.75C-.21518,0-.21678,1.5,.75,1.5H.75Z" fill="#01010C" origin="undraw"/><path d="M1.26544,.55062c-.62753,2.60619,.38999,5.02862,1.98653,7.07022,1.77021,2.2637,3.88143,4.30092,5.8746,6.36669,4.2488,4.40354,8.62678,8.68242,13.12662,12.8291,1.78923,1.64881,3.7227,3.63535,6.23249,4.04957,2.40649,.39717,4.31225-1.06701,5.99998-2.58062,4.54401-4.07519,8.92559-8.34191,13.17764-12.71984,2.36459-2.43459,4.70727-4.89884,6.96446-7.43379,1.77388-1.99216,3.48349-4.54985,2.34129-7.29623-.36535-.87847-1.81733-.49309-1.44642,.39876,1.10164,2.64886-1.07275,4.8722-2.72585,6.68645-1.76252,1.93434-3.55162,3.84449-5.36711,5.72921-3.63102,3.76948-7.36592,7.43867-11.19931,11.00215-1.69139,1.5723-3.66506,4.03942-5.97442,4.65653-2.60277,.69551-4.85822-1.6381-6.59121-3.23-3.86262-3.54815-7.63554-7.19406-11.31457-10.93222-2.00674-2.03899-3.98597-4.10518-5.93557-6.19888C4.39174,6.77535,1.93283,4.18477,2.71186,.94938,2.93773,.01132,1.49168-.38896,1.26544,.55062h0Z" fill="#01010C"/></svg>