<svg xmlns="http://www.w3.org/2000/svg" width="31.96941" height="49.70961" viewBox="0 0 31.96941 49.70961" creator="Katerina Limpitsouni"><path d="M15.91948,48.98513V1.1366c0-.96518-1.5-.96678-1.5,0V48.98513c0,.96518,1.5,.96678,1.5,0h0Z" fill="#01010C" origin="undraw"/><path d="M1.41265,16.46446C4.8295,10.98119,9.15816,6.0244,14.24654,2.0281c1.09276-.85823,1.85486,.26655,2.60859,1.00739,.64189,.63091,1.28377,1.26181,1.92566,1.89272,1.28377,1.26181,2.56754,2.52362,3.85131,3.78544,2.68425,2.63833,5.3685,5.27667,8.05274,7.915,.68905,.67727,1.75051-.38261,1.06066-1.06066-3.03437-2.98246-6.06873-5.96493-9.1031-8.94739-1.51718-1.49123-3.03437-2.98246-4.55155-4.4737-.9708-.9542-2.10852-2.62769-3.66879-2.01555-1.40862,.55265-2.73035,2.04147-3.83801,3.03863-1.37258,1.23565-2.68565,2.53718-3.93229,3.89981C4.20992,9.73884,2.03012,12.63797,.11744,15.70738c-.51198,.82162,.7852,1.57552,1.29521,.75708h0Z" fill="#01010C"/></svg>